<svg width="24" height="24" viewBox="0 0 24 24" fill="none" xmlns="http://www.w3.org/2000/svg">
<path d="M17.2714 15.4214C16.1797 16.5131 14.7951 17.8151 13.1157 19.3281C13.1156 19.3283 13.1155 19.3284 13.1153 19.3285L12 20.3285L10.8847 19.3285C10.8845 19.3284 10.8844 19.3283 10.8843 19.3281C9.20494 17.8151 7.82026 16.5131 6.72855 15.4214C5.63918 14.3321 4.78211 13.3634 4.15137 12.5143C3.52024 11.6647 3.09558 10.9052 2.85909 10.2339C2.61929 9.55313 2.5 8.85927 2.5 8.14999C2.5 6.70782 2.97791 5.52919 3.92855 4.57855C4.8792 3.6279 6.05783 3.14999 7.5 3.14999C8.29356 3.14999 9.04619 3.31729 9.76303 3.65284C10.4807 3.98875 11.0982 4.46112 11.619 5.07382L12 5.52202L12.381 5.07382C12.9018 4.46112 13.5193 3.98875 14.237 3.65284C14.9538 3.31729 15.7064 3.14999 16.5 3.14999C17.9422 3.14999 19.1208 3.6279 20.0714 4.57855C21.0221 5.52919 21.5 6.70782 21.5 8.14999C21.5 8.85927 21.3807 9.55313 21.1409 10.2339C20.9044 10.9052 20.4798 11.6647 19.8486 12.5143C19.2179 13.3634 18.3608 14.3321 17.2714 15.4214Z" fill="white" stroke="#BE123C"/>
</svg>
